<svg id="runner" viewBox="0 0 180 266">
    <path d="M111.91,103.91 L111.91,106.04 C111.91,106.04 116.51,113.76 118.64,114.41 C120.77,115.06 148.51,117.29 164.12,103.9 C165.27,102.91 172.85,107.97 178.73,99.14 C178.73,99.14 178.65,97.83 178.07,96.76 C177.5,95.69 178.73,95.2 178.73,95.2 C178.73,95.2 179.55,93.72 178.73,92 C177.91,90.28 176.95,90.94 177.09,86.5 C177.17,83.96 170.69,84.94 169.87,85.68 C169.05,86.42 168.23,84.86 168.23,84.86 C168.23,84.86 164.13,84.29 163.22,86.26 C162.32,88.23 160.43,89.3 160.43,89.3 C160.43,89.3 156.65,92.5 152.88,92.26 C149.1,92.01 145.93,89.55 134.49,87.74 C132.93,87.49 130.88,73.87 129.07,72.39 C127.26,70.91 131.87,63.49 121.02,51.29 C120.36,50.55 121.29,46 125.29,41.19 C125.7,40.7 133.99,48.43 137.44,42.91 C137.85,42.25 137.36,37.33 136.87,36.67 C136.38,36.01 138.18,36.1 138.18,36.1 L138.02,33.97 L137.61,33.97 L137.69,29.95 L138.35,29.95 C138.35,29.95 140.84,30.33 140.98,29.38 C141.12,28.42 140.63,26.13 138.44,21.75 C138.44,21.75 138.19,15.1 140,13.46 C141.81,11.82 147.55,-13.38 109.46,11.24 C109.46,11.24 109.21,26.84 105.85,27.82 C102.48,28.81 94.03,34.88 94.03,34.88 C94.03,34.88 84.27,36.47 78.19,40.38 C77.04,41.12 73.1,38.9 73.1,38.9 C73.1,38.9 68.46,38.09 57.91,40.79 C54.38,41.69 44.36,42.35 44.36,42.35 C44.36,42.35 37.71,44.64 35.25,65.05 C32.79,85.46 33.28,93.74 33.28,93.74 C33.28,93.74 26.99,99.49 29.5,110.16 C29.83,111.56 34.43,112.29 34.43,112.29 C34.43,112.29 37.06,115.6 39.93,113.69 C40.42,113.36 43.54,114.59 44.69,112.87 C45.84,111.15 49.62,108.11 49.7,105.73 C49.78,103.35 48.39,97.03 46.5,95.88 C44.61,94.73 52.82,81.84 52.82,81.84 C52.82,81.84 59.55,73.38 59.63,70.35 C59.71,67.32 62.42,68.05 62.42,68.05 L71.78,67.23 C71.78,67.23 73.59,100.48 71.62,105.81 C69.65,111.15 69.9,114.59 69.9,114.59 C69.9,114.59 61.08,121.48 69.9,154.57 C70.23,155.8 72.53,170 72.53,170 L29.35,162.53 L12.44,155.14 C12.44,155.14 -2.25,182.07 0.78,191.51 L4.06,191.51 C4.06,191.51 21.05,176.41 24.42,176.32 C27.79,176.23 81.39,196.6 81.39,196.6 C81.39,196.6 95.78,199.74 97.81,175.42 C97.89,174.43 109.14,184.29 109.14,184.29 C109.14,184.29 101.99,202.71 116.53,224.52 C117.02,225.26 124.16,245.54 125.64,252.92 C127.12,260.31 125.56,262.52 127.12,264.99 C128.68,267.45 164.58,260.96 165.79,256.12 C166.04,255.13 165.79,250.95 161.11,251.6 C156.43,252.25 146.91,248.15 146.91,248.15 L137.39,244.05 L127.29,176.98 C127.29,176.98 114.57,142.67 111.12,139.3 C107.67,135.93 104.31,128.05 103.4,128.14 C102.5,128.22 106.11,121.08 106.11,121.08 L111.12,105.15 L111.91,103.91 Z" id="Path"></path>
</svg>
