<svg id="t" viewBox="0 0 728 689">
    <path id="Фигура_1" data-name="Фигура 1" class="cls-1" d="M363,2c2.467,1.295.681-.429,2,2,6.262,8.542,7.107,22.516,11,33,8.661,23.327,16.351,48.669,25,72,2.149,5.8,8.545,33.266,12,35H567v1c-32.354,19.629-62.659,44.067-94,65-7.308,4.881-30.942,16.044-32,25,8.131,11.123,10.343,32.26,16,46,7.1,17.235,11.6,35.98,19,54,4.586,11.169,10.014,23.567,13,36h-3c-6.225-7.774-17.749-12.206-26-18-21.8-15.308-43.92-30.494-66-46-8.829-6.2-19.855-19.418-32-21-6.9,8.582-19.866,13.6-29,20-18.487,12.954-37.213,25.835-56,39-11.381,7.975-23.825,21.869-38,26v-3c8.6-11.755,11.023-34.478,17-49,8.293-20.15,13.408-42.053,22-63,3.077-7.5,7.667-16.046,9-25-12.107-5.818-22.349-15.551-33-23-19.642-13.737-39.7-26.433-59-40-7.59-5.336-30.9-16.274-34-24H315Q339,73.007,363,2ZM0,246c7.348,2.574,11.036,11.781,16,17,13.429,14.119,28.232,29.4,44,41,16.646,12.246,34.074,21.7,52,33,33.877,21.345,66.533,45.662,99,69,15.89,11.422,30.967,24.36,47,36,6.5,4.717,10.8,13.194,21,14,6.188-4.719,14.632-5.457,19-12,3.488-4.659-.068-13.542,2-20l8-1c2.084,3.1,5.652,6.321,7,10,6.937,18.932-13.1,27.423-15,41,12.574,3.84,27.063,18.073,38,25,8.339,5.282,18.358,9.039,25,16,17.627-7.933,33.312-21.516,49-32,5.217-3.486,14.871-5.6,16-13-7.993-5.363-26.091-39.358-8-46,1.418-.961,3.273-0.976,6-1,2.477,4.685,2.125,13.439,2,21,8.182,4.057,13.844,10.91,25,12,11.756-11.938,27.38-21,41-31,28.451-20.883,56.812-43.5,86-64,25.926-18.207,54.026-32.754,80-51,18.105-12.718,34.658-29.326,50-45,5.8-5.923,9.646-14.726,17-19v5c2.921,4.6.736,18.17,0,23-3.739,24.518-6.132,42.08-17,58-21.675,31.749-49.545,59.061-80,82-11.829,8.909-21.9,21.29-34,30-11.1,7.991-21.884,16.555-33,24-6.6,4.419-14.387,7.579-20,13-5.9-1.784-10.2-6.439-16-8-17.916-4.824-35.25,17.362-35,33,2.986,4.08,3.027,11.021,7,14,5.866,4.4,13.543.859,15,10-0.8,1.021-.355.274-1,2-4.856,3.288-15.195,9.777-23,4-12.409-3.6-12.569-17.387-29-18-8.975,8.524-20.514,15.087-28,25-3.32,4.4-6.106,9.2-10,13a38.784,38.784,0,0,0,1,9c17.864,8.56,31.7,22.674,47,34,6.018,4.456,10.464,11.935,17,16,4.6,2.859,25,3,25,3,1.243,1.567.642,0.51,0,2-1.878,7.931-7.307,13.917-11,20-3.326,5.479-2.531,13.827-6,19-4.629,6.9-13.982,9.318-21,14-3.021,2.016-14.812,16.162-17,14-4.715-6.3-2.018-18.743-6-25-7.473-6.954-18.17-10.435-27-16-13.387-8.436-26.283-19.02-39-28-7.112-5.022-15.158-8.763-21-15-1.754.631-.971,0.193-2,1-8.875,2.863-15.866,11.952-23,17-14.35,10.153-29.385,19.435-44,29-7.744,5.068-20.9,6.219-21,19-3.243,5.205-3.287,14.087-6,19h-1v-1l-20-17c-5.03-3.145-11.593-4.382-15-9-4.861-6.589-6.159-16.582-10-24-3.2-6.175-8.212-11.581-9-20h2c6.448,4.63,20.063.422,25-3,21.77-15.088,38.9-38.184,63-51q0.5-3.5,1-7c-8.53-8.8-26.79-34.633-38-38-16.561-4.975-21,27.3-44,20-4.164-1.321-7.094-5.319-10-8,0.631-1.754.193-.971,1-2,2.694-5.1,9.4-3.85,14-7l6-8q1-8,2-16c-2.4-7.967-20.158-27.126-33-24-7.4,1.8-11.3,6.951-19,8-4.386-5.525-12.134-7.891-18-12-10.4-7.285-20.458-15.416-31-23-17.781-12.792-33.446-28.741-51-42l-9-10c-10.551-7.976-21.023-17.441-29-28-8.967-11.868-21.922-20.927-30-34C2.616,310.341.024,281.087,0,246Z"></path>
</svg>
